<?xml version="1.0" encoding="utf-8"?>
<!-- Generator: Adobe Illustrator 22.1.0, SVG Export Plug-In . SVG Version: 6.00 Build 0)  -->
<svg version="1.1" id="Layer_1" xmlns="http://www.w3.org/2000/svg" xmlns:xlink="http://www.w3.org/1999/xlink" x="0px" y="0px"
	 viewBox="0 0 1103.9 770.4" style="enable-background:new 0 0 1103.9 770.4;" xml:space="preserve">
<style type="text/css">
	.st0{fill:none;stroke:#ED9E21;stroke-width:2;stroke-miterlimit:10;}
	.st1{fill:#262262;stroke:#262262;stroke-miterlimit:10;}
	.st2{fill:#ED9F22;}
</style>
<g>
	<path class="st0" d="M52.3,388l59.3-31.6h117.1l201.8-68.6v-36.8l-6-5.8l37.6-21.4v-69.9l-3.9-6v-9.2l5-0.8c0,0-0.4-8.9,5.4-19.3
		s27-21.6,27-21.6s19.3,10.4,25,21.6s6.5,19.3,6.5,19.3l4.8,0.8v9.2l-4.4,6.2L528,224l37.6,21.4l-4.6,5.8l-0.6,36.4l251.3,90.7
		l154.8,26v8.1h-5.8l-1.2,50.8h84.9v42.8h-6.4l-0.6,43.3h6.9v9.2l-812.9-4l-45.1-15V397.3H58.3L52.3,388z"/>
	<path class="st0" d="M486.4,213.6h15v-46.2c0,0-1.7-8.7-7.5-8.7c-5.8,0-7.5,8.7-7.5,8.7V213.6z"/>
	<path class="st0" d="M477.7,417.3h31.4V308.3c0,0,1.5-27.5-15.1-27.5c-16.3,0-16.3,27.5-16.3,27.5V417.3z"/>
	<path class="st0" d="M475,420.8h37.5V306.6c0,0,0.2-29.1-18-29.1c-19.5,0-19.5,29.1-19.5,29.1V420.8z"/>
	<path class="st0" d="M512.6,213.6H523V167c0,0,0-8.3-4.2-8.3c-5.3,0-6.2,7.1-6.2,7.1V213.6z"/>
	<path class="st0" d="M476.7,213.6h-10.4V167c0,0,0-8.3,4.2-8.3c5.3,0,6.2,7.1,6.2,7.1V213.6z"/>
	<line class="st0" x1="431.1" y1="241.6" x2="558" y2="241.6"/>
	<line class="st0" x1="430.5" y1="251.1" x2="560.9" y2="251.1"/>
	<rect x="458.5" y="142.8" class="st0" width="73.5" height="5.3"/>
	<path class="st0" d="M495.7,49.5v47.8c0,0-13.8,15.8-14.9,23.9c-1.2,8.1-1.3,21.7-1.3,21.7h-3.3v5.3h2.9l0.8,75.5L464,241.6v6.3
		h3.1v3.2v2.7h2.6L469,423.1h49.7V254.2h3.1v-7.7h2.3v-4.9l-15-17.7l-0.2-75.9"/>
	<line class="st0" x1="485.2" y1="65.7" x2="506" y2="65.7"/>
	<line class="st0" x1="494" y1="280.8" x2="493.4" y2="417.3"/>
	<line class="st0" x1="477.7" y1="319.5" x2="509.1" y2="319.9"/>
	<path class="st0" d="M525.3,419.8h23.1v-89.6c0,0,1.2-13.8-11.6-13.8s-11.6,13.8-11.6,13.8V419.8z"/>
	<path class="st0" d="M438.2,419.8h23.1v-92c0,0,1.2-10.3-11.6-10.3s-11.6,10.3-11.6,10.3V419.8z"/>
	<polygon class="st0" points="152.4,525.9 138.6,521.3 138.6,397.3 152.4,397.3 	"/>
	<rect x="58.9" y="397" class="st0" width="21.9" height="105.8"/>
	<path class="st0" d="M441.3,419.8l0.4-93.4c0,0,0.1-6.7,8.9-6c6.9,0.6,6.9,9.1,6.9,9.1v90.3H441.3z"/>
	<path class="st0" d="M528.7,419.8l0.4-93.4c0,0,0.1-6.7,8.9-6c6.9,0.6,6.9,9.1,6.9,9.1v90.3H528.7z"/>
	<path class="st0" d="M531.4,419.8"/>
	<path class="st0" d="M512.6,148.1v-5.3h-3.1c0,0,0.3-14.8-1-21.7c-1.8-9.2-12.7-23.9-12.7-23.9"/>
	<polygon class="st0" points="499.5,97.3 499.5,68.6 506.6,68.6 506.6,63.1 499.5,63.1 499.5,49.5 492.2,49.5 492,63.1 485.2,63.1 
		485.2,68.6 491.8,68.6 492.2,97.3 	"/>
	<polygon class="st0" points="430.5,287.9 429.9,300.2 194,383.4 194,541.9 186.5,539.4 186.5,397.3 186.5,387.5 138.6,387.5 
		228.7,356.5 	"/>
	<polygon class="st0" points="560.3,287.5 560.9,302.6 797.9,385.8 797.9,557 805.4,556.8 805.4,399.7 805.4,386.4 812.9,378.9 	"/>
	<polygon class="st0" points="58.9,502.8 80.8,502.8 138.6,521.3 138.6,521.3 152.4,525.9 152.4,541.9 179,549.8 225.6,571.4 
		1056,574.5 1056,558.5 231.6,554.4 186.5,539.4 186.5,397.3 58.3,397.3 	"/>
	<path class="st0" d="M213.7,433.1h36.4v-42.2c0,0,0-16.2-15.6-16.2c-18.9,0-20.8,18.5-20.8,18.5V433.1z"/>
	<path class="st0" d="M220,426.8h23.7v-32.9c0,0,0-13.3-11.3-13.3c-9.5,0-12.4,13.3-12.4,13.3V426.8z"/>
	<path class="st0" d="M751.7,433.1h32.7v-37.9c0,0,0-14.6-14-14.6c-18.7,0-18.7,16.6-18.7,16.6V433.1z"/>
	<path class="st0" d="M757.5,427.4h21.3v-29.6c0,0,0-12-10.1-12c-8.6,0-11.2,12-11.2,12V427.4z"/>
	<rect x="220" y="393.8" class="st0" width="23.7" height="6.9"/>
	<path class="st0" d="M235.6,426.7h-6.3l0-45.1c2.1-1.4,4.2-1.3,6.3,0.1V426.7z"/>
	<rect x="757.4" y="399.6" class="st0" width="21.3" height="5.4"/>
	<path class="st0" d="M771.1,427.3h-6v-40.5c2-1.3,5.2-1.3,6,0.1V427.3z"/>
	<polygon class="st0" points="138.6,387.5 52.3,388 58.3,397.3 138.6,397.3 186.5,397.3 186.5,387.5 	"/>
	<rect x="138.6" y="387.5" class="st0" width="48" height="9.8"/>
	<polygon class="st0" points="255.3,403.9 261.6,403.9 319.4,385.2 354.7,385.8 412.4,406.6 412.4,419.8 255.3,419.8 255.3,410.6 	
		"/>
	<polygon class="st0" points="735.3,405.1 728.9,405.1 671.2,386.3 635.9,387 578.2,407.8 578.2,421 735.3,421 735.3,411.7 	"/>
	<rect x="255.3" y="410.6" class="st0" width="157.1" height="9.2"/>
	<rect x="578.2" y="410.6" class="st0" width="157.1" height="10.4"/>
	<rect x="270.3" y="419.8" class="st0" width="69.9" height="135"/>
	<rect x="364.7" y="419.6" class="st0" width="36.3" height="135.5"/>
	
		<rect x="651" y="420.3" transform="matrix(-1 -5.248392e-11 5.248392e-11 -1 1371.9587 976.9683)" class="st0" width="69.9" height="136.4"/>
	
		<rect x="585.7" y="421.3" transform="matrix(-1 -5.905156e-11 5.905156e-11 -1 1207.8656 977.5255)" class="st0" width="36.4" height="135"/>
	<polygon class="st0" points="322.7,426.8 288.4,426.8 284.2,433.1 277.6,433.1 277.6,506.3 328.1,506.3 328.1,438.1 328.1,433.1 
		323.5,433.1 	"/>
	<polygon class="st0" points="669.4,428.9 700.8,428.9 704.7,434.7 710.7,434.7 710.7,501.9 659.8,501.9 659.8,439.3 659.8,434.7 
		668.6,434.7 	"/>
	<path class="st0" d="M373.1,536.5h21.4v-97.6c0,0,0-12.2-8.1-12.2c-13.3,0-12.7,11.6-12.7,11.6L373.1,536.5z"/>
	<path class="st0" d="M593.2,536.5h21.4v-97.6c0,0,0-12.2-8.1-12.2c-13.3,0-12.7,11.6-12.7,11.6L593.2,536.5z"/>
	<rect x="235.6" y="498.4" class="st0" width="19.6" height="56.1"/>
	<rect x="239.7" y="503.3" class="st0" width="11.6" height="51.2"/>
	<rect x="258.2" y="419.6" class="st0" width="12.1" height="135.2"/>
	<rect x="400.9" y="419.6" class="st0" width="5.7" height="135.4"/>
	<rect x="754.4" y="509.9" class="st0" width="16.6" height="47.1"/>
	<rect x="738.8" y="501.9" class="st0" width="48.5" height="8.1"/>
	<rect x="738.8" y="509.9" class="st0" width="15.6" height="47.1"/>
	<rect x="771.1" y="509.9" class="st0" width="16.3" height="47.1"/>
	<rect x="771.1" y="509.9" class="st0" width="8.1" height="26.6"/>
	<rect x="744" y="509.9" class="st0" width="10.4" height="26.6"/>
	<line class="st0" x1="123.9" y1="356.5" x2="68.7" y2="387.5"/>
	<line class="st0" x1="135.7" y1="356.5" x2="80.8" y2="388"/>
	<line class="st0" x1="150.1" y1="356.5" x2="96" y2="388"/>
	<line class="st0" x1="165.7" y1="356.5" x2="110.5" y2="388"/>
	<line class="st0" x1="181.9" y1="356.5" x2="124.4" y2="388"/>
	<line class="st0" x1="195.8" y1="356.5" x2="138.6" y2="387.5"/>
	<rect x="430.5" y="251.1" class="st0" width="130.4" height="304.6"/>
	<line class="st0" x1="412.4" y1="306.4" x2="412.4" y2="406.6"/>
	<line class="st0" x1="578.2" y1="308.7" x2="578.2" y2="407.8"/>
	<polygon class="st0" points="430.5,433.1 430.5,554.5 437,554.8 437.5,475.5 441.3,475.5 441.3,466.5 437.5,466.5 437.8,433.1 
		441.3,433.1 441.3,426.7 461.4,426.7 461.4,433.1 479.8,433.1 479.8,426.7 509.1,426.7 509.1,433.1 526.8,433.1 526.8,426.7 
		551.1,426.7 551.1,433.1 554.5,433.1 554.5,467 548.4,467 548.4,477.4 554.5,477.4 554.5,533.5 549.9,533.5 550.3,555.7 
		560.9,555.7 560.9,423.3 430.5,423.1 	"/>
	<polygon class="st0" points="455.6,546.3 462.5,546.3 462.5,475.1 457.5,475.1 457.5,466.5 464,466.5 463.7,433.1 475,433.1 
		475,466.5 480.6,466.5 480.6,475.1 475,475.1 475,546.3 480.6,546.3 480.6,555.2 455.6,554.8 	"/>
	<polygon class="st0" points="503.7,546.3 510.7,546.3 510.7,475.1 505.6,475.1 505.6,466.5 512.2,466.5 511.8,433.1 523.2,433.1 
		523.2,466.5 528.7,466.5 528.7,475.1 523.2,475.1 523.2,546.3 528.7,546.3 528.7,555.2 503.7,554.8 	"/>
	<path class="st0" d="M480.6,555.2l23.1-0.4v-8.4h7l-0.4-55.5c0,0,0.4-11.9-16.2-13.1c-13.7-1-19.1,12.8-19.1,12.8v55.8h5.6V555.2z"
		/>
	<rect x="491" y="478.6" class="st0" width="3.1" height="76.2"/>
	<rect x="441.3" y="468.5" class="st0" width="16.2" height="5"/>
	<line class="st0" x1="180.1" y1="373.2" x2="186.5" y2="387.5"/>
	<line class="st0" x1="211.8" y1="356.5" x2="180.1" y2="373.2"/>
	<path class="st0" d="M480.6,546.3c0,0,0-12.9,11.6-12.9c12.7,0,11.6,12.9,11.6,12.9v8.4l-23.1,0.4V546.3z"/>
	<path class="st0" d="M494.1,491.2c0,0,4.5,0.7,4.8,7.6c0.3,6.9,0.5,12.9,0.5,12.9h4.3v18.5h-9.6V491.2z"/>
	<path class="st0" d="M490.6,491.2c0,0-4.5,0.7-4.8,7.6c-0.3,6.9-0.5,12.9-0.5,12.9H481v18.5h9.6V491.2z"/>
	<polygon class="st0" points="1022.5,558.3 1022.5,549.2 1026.4,549.2 1026.4,512.1 1022.5,512.1 1022.5,504 957.4,504 957.4,558 	
		"/>
	<rect x="805.4" y="412.3" class="st0" width="155" height="11.2"/>
	<rect x="818.4" y="423.5" class="st0" width="132.5" height="114.8"/>
	<polygon class="st0" points="827.2,497.8 827.2,460.1 831.5,460.1 831.5,453.5 937,453.5 937,460.8 941.2,460.8 941.2,497.8 
		934.7,497.8 934.7,501.9 832.6,501.9 832.2,497.8 	"/>
</g>
<g>
	<path class="st1" d="M67.1,629.1l0.8,0.5c0,0.6,0.1,1.1,0.3,1.6c0.4,0.8,1.1,1.6,2.3,2.3c1.1,0.8,2.4,1.4,3.9,2
		c1.4,0.6,3,1.1,4.6,1.4c1.6,0.4,3,0.5,4.3,0.5c0.9,0,2.1-0.1,3.6-0.2c1.5-0.2,2.9-0.5,4.3-1c1.4-0.5,2.7-1.2,3.7-2.2
		c1-0.9,1.6-2.1,1.6-3.6c0-1.5-0.5-2.6-1.4-3.3c-1-0.7-2.2-1.2-3.8-1.6c-1.6-0.3-3.3-0.5-5.3-0.6c-2-0.1-4-0.2-6.1-0.4
		c-2.1-0.2-4.1-0.5-6.1-1c-2-0.5-3.8-1.2-5.3-2.3s-2.8-2.6-3.8-4.4c-1-1.9-1.4-4.3-1.4-7.3c0-2,0.4-4,1.2-6c0.8-2,2-3.7,3.6-5.2
		c1.6-1.5,3.7-2.7,6.2-3.7c2.5-1,5.5-1.4,8.9-1.4c2.9,0,5.4,0.3,7.5,0.8c2.1,0.5,4,1.1,5.5,1.7c1.6,0.6,2.9,1.1,3.9,1.7
		c1.1,0.5,2,0.8,2.7,0.8c0.8,0,1.3-0.2,1.6-0.6l1,0.8l-5.7,12.3l-0.8-0.4c-0.1-0.9-0.3-1.7-0.7-2.3c-0.4-0.8-1.2-1.6-2.2-2.3
		c-1-0.8-2.2-1.4-3.6-2c-1.4-0.6-2.8-1.1-4.4-1.4c-1.6-0.4-3.2-0.5-4.8-0.5c-1.2,0-2.4,0.1-3.7,0.3c-1.3,0.2-2.4,0.6-3.5,1
		c-1,0.5-1.9,1.1-2.6,1.8c-0.7,0.8-1,1.7-1,2.8c0,1.6,0.5,2.8,1.4,3.5c1,0.8,2.2,1.4,3.8,1.8s3.3,0.7,5.3,0.8c2,0.1,4,0.3,6.1,0.5
		c2.1,0.2,4.1,0.5,6.1,1c2,0.5,3.8,1.3,5.3,2.4c1.6,1.1,2.8,2.5,3.8,4.4c1,1.8,1.4,4.2,1.4,7.2c0,3.4-0.8,6.2-2.3,8.4
		c-1.5,2.2-3.4,3.9-5.6,5.1c-2.2,1.2-4.7,2.1-7.3,2.5c-2.6,0.4-5,0.6-7.3,0.6c-3.1,0-5.7-0.2-7.8-0.6c-2.1-0.4-3.9-1-5.2-1.6
		c-1.4-0.6-2.5-1.2-3.3-1.7s-1.5-0.7-2.1-0.7c-0.4,0-0.7,0.3-1.1,0.8l-1.1-0.8L67.1,629.1z"/>
	<path class="st1" d="M111.2,643.5c0.7-0.1,1.3-0.6,1.7-1.3c0.4-0.7,0.8-1.5,1.2-2.5l15.2-38.3c0.4-0.9,0.7-1.6,1-2.4
		c0.3-0.7,0.5-1.3,0.5-1.9c0-0.7-0.2-1.1-0.6-1.4c-0.4-0.3-0.8-0.5-1.2-0.6v-1.8h13.9v1.8c-0.4,0.1-0.8,0.3-1.1,0.5
		c-0.4,0.2-0.6,0.7-0.6,1.4c0,0.5,0.1,1,0.3,1.6c0.2,0.5,0.5,1.2,0.9,2.1l17.1,40c0.3,0.7,0.6,1.2,1.1,1.6c0.5,0.3,1,0.7,1.6,1v1.8
		h-14.4v-1.8c0.2,0,0.5-0.1,0.8-0.3c0.3-0.2,0.5-0.5,0.5-0.9c0-0.7-0.2-1.5-0.7-2.6l-3.1-7.3h-20l-3,7c-0.5,1.4-0.8,2.4-0.8,3
		c0,0.7,0.5,1.1,1.6,1.1v1.8h-11.6V643.5z M142.1,625.2l-6.9-18.3l-7.7,18.3H142.1z"/>
	<path class="st1" d="M168.9,643.5c1.4,0,2.1-0.6,2.1-1.8v-44.7c0-1.2-0.7-1.8-2.1-1.8v-1.8h13.6v1.8c-1.4,0-2.1,0.6-2.1,1.8v44.7
		c0,1.2,0.7,1.8,2.1,1.8v1.8h-13.6V643.5z"/>
	<path class="st1" d="M194.8,643.5c1,0,1.6-0.6,1.6-1.8v-44.7c0-1.2-0.5-1.8-1.6-1.8v-1.8h14v1.8c-0.4,0-0.7,0.3-0.7,1
		c0,0.5,0.5,1.4,1.6,2.8l23.5,29.3v-31.3c0-1.2-0.7-1.8-2.1-1.8v-1.8h12.4v1.8c-1,0-1.6,0.6-1.6,1.8v44.7c0,1.2,0.5,1.8,1.6,1.8v1.8
		h-13.3v-1.8c0.7,0,1.1-0.3,1.1-0.9c0-0.5-0.4-1.2-1.3-2.3l-25-31.3v32.7c0,1.2,0.6,1.8,1.9,1.8v1.8h-12.1V643.5z"/>
	<path class="st1" d="M278.8,641.7c0,1.2,0.6,1.8,1.8,1.8v1.8H268v-1.8c0.4,0,0.7-0.1,1-0.4c0.3-0.3,0.5-0.7,0.5-1.3v-39.2h-13.5
		c-0.5,0-1,0.2-1.4,0.5c-0.5,0.3-0.7,1-0.7,1.9h-1.5v-13.8h1.5c0,0.9,0.2,1.5,0.7,1.9c0.5,0.3,0.9,0.5,1.4,0.5h36.4
		c0.5,0,1-0.2,1.4-0.5c0.5-0.3,0.7-1,0.7-1.9h1.5v13.8h-1.5c0-0.9-0.2-1.5-0.7-1.9c-0.5-0.3-0.9-0.5-1.4-0.5h-13.5V641.7z"/>
	<path class="st1" d="M349.8,641.7c0,1.2,0.6,1.8,1.8,1.8v1.8H339v-1.8c0.4,0,0.7-0.1,1-0.4c0.3-0.3,0.5-0.7,0.5-1.3v-39.2h-13.5
		c-0.5,0-1,0.2-1.4,0.5c-0.5,0.3-0.7,1-0.7,1.9h-1.5v-13.8h1.5c0,0.9,0.2,1.5,0.7,1.9c0.5,0.3,0.9,0.5,1.4,0.5h36.4
		c0.5,0,1-0.2,1.4-0.5c0.5-0.3,0.7-1,0.7-1.9h1.5v13.8h-1.5c0-0.9-0.2-1.5-0.7-1.9c-0.5-0.3-0.9-0.5-1.4-0.5h-13.5V641.7z"/>
	<path class="st1" d="M413.3,597.1c0-1.2-0.6-1.8-1.8-1.8v-1.8h12.6v1.8c-0.4,0-0.7,0.1-1,0.4c-0.3,0.3-0.5,0.7-0.5,1.3v44.7
		c0,0.6,0.1,1,0.5,1.3c0.3,0.3,0.6,0.4,1,0.4v1.8h-12.6v-1.8c1.2,0,1.8-0.6,1.8-1.8v-18.5h-26.4v18.5c0,0.6,0.1,1,0.5,1.3
		c0.3,0.3,0.6,0.4,1,0.4v1.8H376v-1.8c1,0,1.6-0.6,1.6-1.8v-44.7c0-1.2-0.5-1.8-1.6-1.8v-1.8h12.4v1.8c-0.4,0-0.7,0.1-1,0.4
		c-0.3,0.3-0.5,0.7-0.5,1.3v16.7h26.4V597.1z"/>
	<path class="st1" d="M461.8,592.9c3,0,6.1,0.5,9.2,1.6s6,2.7,8.5,4.9c2.6,2.2,4.7,4.9,6.3,8.2c1.6,3.3,2.5,7.2,2.5,11.8
		s-0.8,8.4-2.5,11.8c-1.6,3.3-3.7,6.1-6.3,8.2c-2.6,2.2-5.4,3.7-8.5,4.7c-3.1,1-6.2,1.5-9.2,1.5c-3,0-6.1-0.5-9.2-1.5
		c-3.1-1-6-2.6-8.5-4.7s-4.7-4.9-6.3-8.2c-1.6-3.3-2.5-7.2-2.5-11.8s0.8-8.4,2.5-11.8c1.6-3.3,3.7-6.1,6.3-8.2
		c2.6-2.2,5.4-3.8,8.5-4.9S458.8,592.9,461.8,592.9z M461.8,602c-2.1,0-4.2,0.4-6.2,1.2c-2.1,0.8-4,1.9-5.6,3.4
		c-1.7,1.5-3,3.3-4.1,5.5c-1,2.2-1.6,4.6-1.6,7.4c0,2.8,0.5,5.2,1.6,7.4c1,2.2,2.4,4,4.1,5.5c1.7,1.5,3.5,2.6,5.6,3.4
		c2.1,0.8,4.2,1.2,6.2,1.2c2.1,0,4.2-0.4,6.2-1.2c2.1-0.8,3.9-1.9,5.6-3.4c1.7-1.5,3-3.3,4.1-5.5c1-2.2,1.6-4.6,1.6-7.4
		c0-2.8-0.5-5.2-1.6-7.4c-1-2.2-2.4-4-4.1-5.5c-1.7-1.5-3.5-2.6-5.6-3.4C466,602.4,463.9,602,461.8,602z"/>
	<path class="st1" d="M498.9,643.5c0.4,0,0.8-0.1,1.1-0.4s0.5-0.7,0.5-1.3v-44.9c0-0.6-0.2-1-0.5-1.2c-0.3-0.2-0.7-0.3-1.1-0.3v-1.8
		h15.3v1.8c-0.3,0-0.6,0.1-0.9,0.3c-0.3,0.2-0.5,0.5-0.5,0.9c0,0.3,0.1,0.8,0.3,1.3c0.2,0.5,0.5,1.1,0.7,1.7l11.7,25.6l11.8-25.3
		c0.4-0.9,0.7-1.5,0.9-2c0.2-0.5,0.3-0.9,0.3-1.3c0-0.7-0.4-1.1-1.1-1.1v-1.8h15.2v1.8c-0.4,0-0.8,0.1-1.1,0.3
		c-0.3,0.2-0.5,0.6-0.5,1.2v44.9c0,0.6,0.2,1,0.5,1.3c0.3,0.3,0.7,0.4,1.1,0.4v1.8h-12.9v-1.8c1.5,0,2.2-0.6,2.2-1.8v-32.7h-0.2
		l-16.5,36.2h-0.2L509.1,609h-0.2v32.8c0,1.2,0.8,1.8,2.3,1.8v1.8h-12.3V643.5z"/>
	<path class="st1" d="M559.7,643.5c0.7-0.1,1.3-0.6,1.7-1.3c0.4-0.7,0.8-1.5,1.2-2.5l15.2-38.3c0.4-0.9,0.7-1.6,1-2.4
		c0.3-0.7,0.5-1.3,0.5-1.9c0-0.7-0.2-1.1-0.6-1.4c-0.4-0.3-0.8-0.5-1.2-0.6v-1.8h13.9v1.8c-0.4,0.1-0.8,0.3-1.1,0.5
		c-0.4,0.2-0.6,0.7-0.6,1.4c0,0.5,0.1,1,0.3,1.6c0.2,0.5,0.5,1.2,0.9,2.1l17.1,40c0.3,0.7,0.6,1.2,1.1,1.6c0.5,0.3,1,0.7,1.6,1v1.8
		H596v-1.8c0.2,0,0.5-0.1,0.8-0.3c0.3-0.2,0.5-0.5,0.5-0.9c0-0.7-0.2-1.5-0.7-2.6l-3.1-7.3h-20l-3,7c-0.5,1.4-0.8,2.4-0.8,3
		c0,0.7,0.5,1.1,1.6,1.1v1.8h-11.6V643.5z M590.6,625.2l-6.9-18.3l-7.7,18.3H590.6z"/>
	<path class="st1" d="M620.8,629.1l0.8,0.5c0,0.6,0.1,1.1,0.3,1.6c0.4,0.8,1.1,1.6,2.3,2.3c1.1,0.8,2.4,1.4,3.9,2
		c1.4,0.6,3,1.1,4.6,1.4c1.6,0.4,3,0.5,4.3,0.5c0.9,0,2.1-0.1,3.6-0.2c1.5-0.2,2.9-0.5,4.3-1c1.4-0.5,2.7-1.2,3.7-2.2
		c1-0.9,1.6-2.1,1.6-3.6c0-1.5-0.5-2.6-1.4-3.3c-1-0.7-2.2-1.2-3.8-1.6c-1.6-0.3-3.3-0.5-5.3-0.6c-2-0.1-4-0.2-6.1-0.4
		c-2.1-0.2-4.1-0.5-6.1-1c-2-0.5-3.8-1.2-5.3-2.3c-1.6-1.1-2.8-2.6-3.8-4.4c-1-1.9-1.4-4.3-1.4-7.3c0-2,0.4-4,1.2-6
		c0.8-2,2-3.7,3.6-5.2c1.6-1.5,3.7-2.7,6.2-3.7c2.5-1,5.5-1.4,8.9-1.4c2.9,0,5.4,0.3,7.5,0.8c2.1,0.5,4,1.1,5.5,1.7
		c1.6,0.6,2.9,1.1,3.9,1.7c1.1,0.5,2,0.8,2.7,0.8c0.8,0,1.3-0.2,1.6-0.6l1,0.8l-5.7,12.3l-0.8-0.4c-0.1-0.9-0.3-1.7-0.7-2.3
		c-0.4-0.8-1.2-1.6-2.2-2.3c-1-0.8-2.2-1.4-3.6-2c-1.4-0.6-2.8-1.1-4.4-1.4c-1.6-0.4-3.2-0.5-4.8-0.5c-1.2,0-2.4,0.1-3.7,0.3
		c-1.3,0.2-2.4,0.6-3.5,1c-1,0.5-1.9,1.1-2.6,1.8c-0.7,0.8-1,1.7-1,2.8c0,1.6,0.5,2.8,1.4,3.5c1,0.8,2.2,1.4,3.8,1.8
		c1.6,0.4,3.3,0.7,5.3,0.8c2,0.1,4,0.3,6.1,0.5c2.1,0.2,4.1,0.5,6.1,1c2,0.5,3.8,1.3,5.3,2.4c1.6,1.1,2.8,2.5,3.8,4.4
		c1,1.8,1.4,4.2,1.4,7.2c0,3.4-0.8,6.2-2.3,8.4c-1.5,2.2-3.4,3.9-5.6,5.1c-2.2,1.2-4.7,2.1-7.3,2.5c-2.6,0.4-5,0.6-7.3,0.6
		c-3.1,0-5.7-0.2-7.8-0.6c-2.1-0.4-3.9-1-5.2-1.6c-1.4-0.6-2.5-1.2-3.3-1.7s-1.5-0.7-2.1-0.7c-0.4,0-0.7,0.3-1.1,0.8l-1.1-0.8
		L620.8,629.1z"/>
	<path class="st1" d="M687.9,643.5c0.7-0.1,1.3-0.6,1.7-1.3c0.4-0.7,0.8-1.5,1.2-2.5l15.2-38.3c0.4-0.9,0.7-1.6,1-2.4
		c0.3-0.7,0.5-1.3,0.5-1.9c0-0.7-0.2-1.1-0.6-1.4c-0.4-0.3-0.8-0.5-1.2-0.6v-1.8h13.9v1.8c-0.4,0.1-0.8,0.3-1.1,0.5
		c-0.4,0.2-0.6,0.7-0.6,1.4c0,0.5,0.1,1,0.3,1.6c0.2,0.5,0.5,1.2,0.9,2.1l17.1,40c0.3,0.7,0.6,1.2,1.1,1.6c0.5,0.3,1,0.7,1.6,1v1.8
		h-14.4v-1.8c0.2,0,0.5-0.1,0.8-0.3c0.3-0.2,0.5-0.5,0.5-0.9c0-0.7-0.2-1.5-0.7-2.6l-3.1-7.3h-20l-3,7c-0.5,1.4-0.8,2.4-0.8,3
		c0,0.7,0.5,1.1,1.6,1.1v1.8h-11.6V643.5z M718.8,625.2l-6.9-18.3l-7.7,18.3H718.8z"/>
	<path class="st1" d="M785,654.5c0.2-0.3,0.3-0.6,0.5-0.9c0.1-0.3,0.2-0.7,0.2-1.1s-0.2-0.9-0.7-1.6c-0.5-0.7-1-1.4-1.7-2.3
		c-0.7-0.8-1.3-1.6-2-2.4c-0.7-0.8-1.2-1.4-1.6-2c-1.5,0.5-3,0.9-4.5,1c-1.5,0.2-3,0.2-4.5,0.2c-3,0-6.1-0.5-9.2-1.5
		c-3.1-1-6-2.6-8.5-4.7s-4.7-4.9-6.3-8.2c-1.6-3.3-2.5-7.2-2.5-11.8s0.8-8.4,2.5-11.8c1.6-3.3,3.7-6.1,6.3-8.2
		c2.6-2.2,5.4-3.8,8.5-4.9s6.2-1.6,9.2-1.6c3,0,6.1,0.5,9.2,1.6s6,2.7,8.5,4.9c2.6,2.2,4.7,4.9,6.3,8.2c1.6,3.3,2.5,7.2,2.5,11.8
		c0,4.7-0.9,8.8-2.6,12.1c-1.7,3.3-4,6.1-6.8,8.3c0.3,0.3,0.7,0.8,1.1,1.4c0.4,0.6,0.9,1.2,1.4,1.8c0.5,0.6,0.9,1.1,1.4,1.5
		s0.8,0.6,1.1,0.6c0.7,0,1.2-0.3,1.6-0.8l1.1,1.1l-9.5,9.9L785,654.5z M770.7,602c-2.1,0-4.2,0.4-6.2,1.2c-2.1,0.8-4,1.9-5.6,3.4
		c-1.7,1.5-3,3.3-4.1,5.5c-1,2.2-1.6,4.6-1.6,7.4c0,2.8,0.5,5.2,1.6,7.4c1,2.2,2.4,4,4.1,5.5c1.7,1.5,3.5,2.6,5.6,3.4
		c2.1,0.8,4.2,1.2,6.2,1.2c1.3,0,2.4-0.1,3.4-0.4c-1.2-1.9-2.3-3.4-3.4-4.4c-1-1-1.9-1.8-2.7-2.3c-0.7-0.5-1.3-0.9-1.7-1.1
		c-0.4-0.2-0.6-0.4-0.6-0.7c0-0.5,0.6-1,1.8-1.4c1.2-0.4,2.4-0.6,3.8-0.6c1.1,0,2.2,0.2,3.2,0.5c1,0.4,1.9,0.8,2.8,1.4
		c0.9,0.6,1.7,1.3,2.6,2.1c0.8,0.8,1.7,1.6,2.6,2.4c1.7-1.5,3.1-3.3,4.1-5.5c1.1-2.2,1.6-4.7,1.6-7.5c0-2.8-0.5-5.2-1.6-7.4
		c-1-2.2-2.4-4-4.1-5.5c-1.7-1.5-3.5-2.6-5.6-3.4C774.9,602.4,772.8,602,770.7,602z"/>
	<path class="st1" d="M819.4,595.3c-1.2,0-1.8,0.6-1.8,1.8v29.5c0,4.1,1.1,7,3.3,8.5c2.2,1.5,5.5,2.3,9.7,2.3c4.3,0,7.5-0.8,9.7-2.3
		c2.2-1.5,3.3-4.4,3.3-8.5v-29.5c0-1.2-0.8-1.8-2.5-1.8v-1.8h13.1v1.8c-1.3,0-2,0.6-2,1.8v29c0,3.9-0.5,7.1-1.4,9.6
		c-0.9,2.5-2.3,4.5-4.2,6.1c-1.9,1.5-4.2,2.5-6.9,3.1c-2.8,0.5-5.9,0.8-9.6,0.8c-3.6,0-6.8-0.3-9.6-0.8c-2.8-0.5-5.1-1.5-6.9-3.1
		c-1.9-1.5-3.3-3.5-4.2-6.1c-0.9-2.5-1.4-5.7-1.4-9.6v-29c0-1.2-0.8-1.8-2.3-1.8v-1.8h13.4V595.3z"/>
	<path class="st1" d="M864.5,643.5c1.4,0,2.1-0.6,2.1-1.8v-44.7c0-1.2-0.7-1.8-2.1-1.8v-1.8h13.6v1.8c-1.4,0-2.1,0.6-2.1,1.8v44.7
		c0,1.2,0.7,1.8,2.1,1.8v1.8h-13.6V643.5z"/>
	<path class="st1" d="M890.4,643.5c1,0,1.6-0.6,1.6-1.8v-44.7c0-1.2-0.5-1.8-1.6-1.8v-1.8h14v1.8c-0.4,0-0.7,0.3-0.7,1
		c0,0.5,0.5,1.4,1.6,2.8l23.5,29.3v-31.3c0-1.2-0.7-1.8-2.1-1.8v-1.8h12.4v1.8c-1,0-1.6,0.6-1.6,1.8v44.7c0,1.2,0.5,1.8,1.6,1.8v1.8
		h-13.3v-1.8c0.7,0,1.1-0.3,1.1-0.9c0-0.5-0.4-1.2-1.3-2.3l-25-31.3v32.7c0,1.2,0.6,1.8,1.9,1.8v1.8h-12.1V643.5z"/>
	<path class="st1" d="M946.4,643.5c0.7-0.1,1.3-0.6,1.7-1.3c0.4-0.7,0.8-1.5,1.2-2.5l15.2-38.3c0.4-0.9,0.7-1.6,1-2.4
		c0.3-0.7,0.5-1.3,0.5-1.9c0-0.7-0.2-1.1-0.6-1.4c-0.4-0.3-0.8-0.5-1.2-0.6v-1.8H978v1.8c-0.4,0.1-0.8,0.3-1.1,0.5
		c-0.4,0.2-0.6,0.7-0.6,1.4c0,0.5,0.1,1,0.3,1.6c0.2,0.5,0.5,1.2,0.9,2.1l17.1,40c0.3,0.7,0.6,1.2,1.1,1.6c0.5,0.3,1,0.7,1.6,1v1.8
		h-14.4v-1.8c0.2,0,0.5-0.1,0.8-0.3c0.3-0.2,0.5-0.5,0.5-0.9c0-0.7-0.2-1.5-0.7-2.6l-3.1-7.3h-20l-3,7c-0.5,1.4-0.8,2.4-0.8,3
		c0,0.7,0.5,1.1,1.6,1.1v1.8h-11.6V643.5z M977.4,625.2l-6.9-18.3l-7.7,18.3H977.4z"/>
	<path class="st1" d="M1007.6,629.1l0.8,0.5c0,0.6,0.1,1.1,0.3,1.6c0.4,0.8,1.1,1.6,2.3,2.3c1.1,0.8,2.4,1.4,3.9,2
		c1.4,0.6,3,1.1,4.6,1.4c1.6,0.4,3,0.5,4.3,0.5c0.9,0,2.1-0.1,3.6-0.2c1.5-0.2,2.9-0.5,4.3-1c1.4-0.5,2.7-1.2,3.7-2.2
		c1-0.9,1.6-2.1,1.6-3.6c0-1.5-0.5-2.6-1.4-3.3c-1-0.7-2.2-1.2-3.8-1.6c-1.6-0.3-3.3-0.5-5.3-0.6c-2-0.1-4-0.2-6.1-0.4
		c-2.1-0.2-4.1-0.5-6.1-1c-2-0.5-3.8-1.2-5.3-2.3c-1.6-1.1-2.8-2.6-3.8-4.4c-1-1.9-1.4-4.3-1.4-7.3c0-2,0.4-4,1.2-6
		c0.8-2,2-3.7,3.6-5.2c1.6-1.5,3.7-2.7,6.2-3.7c2.5-1,5.5-1.4,8.9-1.4c2.9,0,5.4,0.3,7.5,0.8c2.1,0.5,4,1.1,5.5,1.7
		c1.6,0.6,2.9,1.1,3.9,1.7c1.1,0.5,2,0.8,2.7,0.8c0.8,0,1.3-0.2,1.6-0.6l1,0.8l-5.7,12.3l-0.8-0.4c-0.1-0.9-0.3-1.7-0.7-2.3
		c-0.4-0.8-1.2-1.6-2.2-2.3c-1-0.8-2.2-1.4-3.6-2c-1.4-0.6-2.8-1.1-4.4-1.4c-1.6-0.4-3.2-0.5-4.8-0.5c-1.2,0-2.4,0.1-3.7,0.3
		c-1.3,0.2-2.4,0.6-3.5,1c-1,0.5-1.9,1.1-2.6,1.8c-0.7,0.8-1,1.7-1,2.8c0,1.6,0.5,2.8,1.4,3.5c1,0.8,2.2,1.4,3.8,1.8
		c1.6,0.4,3.3,0.7,5.3,0.8c2,0.1,4,0.3,6.1,0.5c2.1,0.2,4.1,0.5,6.1,1c2,0.5,3.8,1.3,5.3,2.4c1.6,1.1,2.8,2.5,3.8,4.4
		c1,1.8,1.4,4.2,1.4,7.2c0,3.4-0.8,6.2-2.3,8.4c-1.5,2.2-3.4,3.9-5.6,5.1c-2.2,1.2-4.7,2.1-7.3,2.5c-2.6,0.4-5,0.6-7.3,0.6
		c-3.1,0-5.7-0.2-7.8-0.6c-2.1-0.4-3.9-1-5.2-1.6c-1.4-0.6-2.5-1.2-3.3-1.7s-1.5-0.7-2.1-0.7c-0.4,0-0.7,0.3-1.1,0.8l-1.1-0.8
		L1007.6,629.1z"/>
</g>
<g>
	<path class="st1" d="M109.8,702.1c0.4,0,0.7,0.1,0.9,0.4l2.5,2.8c-1.8,2.1-3.9,3.7-6.4,4.8c-2.5,1.1-5.6,1.7-9.1,1.7
		c-3.1,0-5.9-0.5-8.5-1.6c-2.5-1.1-4.7-2.6-6.5-4.5c-1.8-1.9-3.2-4.3-4.2-7s-1.5-5.7-1.5-8.9s0.5-6.2,1.5-8.9c1-2.7,2.5-5,4.3-7
		c1.9-1.9,4.1-3.5,6.7-4.5c2.6-1.1,5.5-1.6,8.6-1.6c3.1,0,5.8,0.5,8.2,1.5c2.4,1,4.5,2.3,6.2,4l-2.1,3c-0.1,0.2-0.3,0.4-0.5,0.5
		c-0.2,0.1-0.5,0.2-0.8,0.2c-0.4,0-0.8-0.2-1.3-0.6c-0.5-0.4-1.2-0.8-2-1.3c-0.8-0.5-1.9-0.9-3.1-1.3c-1.2-0.4-2.7-0.6-4.6-0.6
		c-2.1,0-4.1,0.4-5.9,1.1c-1.8,0.8-3.3,1.8-4.6,3.2c-1.3,1.4-2.3,3.1-3,5.2c-0.7,2.1-1.1,4.4-1.1,6.9c0,2.6,0.4,5,1.1,7
		c0.7,2,1.8,3.8,3.1,5.2c1.3,1.4,2.8,2.5,4.6,3.2c1.8,0.7,3.7,1.1,5.7,1.1c1.2,0,2.4-0.1,3.3-0.2c1-0.1,1.9-0.4,2.7-0.7
		c0.8-0.3,1.6-0.7,2.4-1.2c0.7-0.5,1.5-1,2.2-1.7c0.2-0.1,0.3-0.3,0.5-0.3C109.4,702.1,109.6,702.1,109.8,702.1z"/>
	<path class="st1" d="M120.1,685.1c1.7-1.6,3.5-2.8,5.5-3.6c2-0.8,4.2-1.2,6.6-1.2c1.7,0,3.3,0.3,4.6,0.9c1.3,0.6,2.5,1.4,3.4,2.4
		c0.9,1,1.6,2.2,2.1,3.7c0.5,1.4,0.7,3,0.7,4.7v19.4h-2.6c-0.6,0-1-0.1-1.3-0.3c-0.3-0.2-0.5-0.5-0.7-1.1l-0.6-2.7
		c-0.8,0.7-1.6,1.4-2.3,1.9c-0.8,0.6-1.6,1-2.4,1.4c-0.8,0.4-1.7,0.7-2.7,0.9c-0.9,0.2-2,0.3-3.1,0.3c-1.2,0-2.3-0.2-3.4-0.5
		c-1.1-0.3-2-0.8-2.7-1.5c-0.8-0.7-1.4-1.5-1.8-2.5c-0.4-1-0.7-2.2-0.7-3.6c0-1.2,0.3-2.4,1-3.5c0.6-1.1,1.7-2.1,3.2-3
		c1.5-0.9,3.4-1.6,5.8-2.2c2.4-0.6,5.3-0.9,8.7-1v-2.2c0-2.3-0.5-4-1.5-5.2c-1-1.1-2.4-1.7-4.3-1.7c-1.3,0-2.4,0.2-3.2,0.5
		s-1.6,0.7-2.2,1.1c-0.6,0.4-1.2,0.7-1.6,1.1c-0.5,0.3-1,0.5-1.5,0.5c-0.4,0-0.7-0.1-1-0.3c-0.3-0.2-0.5-0.5-0.7-0.8L120.1,685.1z
		 M137.3,697.8c-2.4,0.1-4.4,0.3-6.1,0.6c-1.7,0.3-3,0.7-4.1,1.2c-1,0.5-1.8,1-2.2,1.7c-0.5,0.7-0.7,1.4-0.7,2.2
		c0,0.8,0.1,1.4,0.4,2c0.2,0.6,0.6,1,1,1.4c0.4,0.3,0.9,0.6,1.5,0.8c0.6,0.2,1.2,0.2,1.9,0.2c0.9,0,1.7-0.1,2.5-0.3
		c0.8-0.2,1.5-0.4,2.1-0.8s1.3-0.7,1.9-1.2c0.6-0.5,1.2-1,1.8-1.7V697.8z"/>
	<path class="st1" d="M162.4,711.8c-2.5,0-4.4-0.7-5.7-2.1s-2-3.3-2-5.9v-18.2h-3.5c-0.3,0-0.6-0.1-0.9-0.3
		c-0.2-0.2-0.3-0.5-0.3-0.9V682l5-0.7l1.3-9.1c0.1-0.3,0.2-0.6,0.5-0.8c0.2-0.2,0.5-0.3,0.9-0.3h3v10.2h8.6v4.3h-8.6v17.9
		c0,1.2,0.3,2.1,0.9,2.7c0.6,0.6,1.3,0.9,2.3,0.9c0.5,0,1-0.1,1.4-0.2c0.4-0.1,0.7-0.3,1-0.5c0.3-0.2,0.5-0.3,0.7-0.5
		c0.2-0.1,0.4-0.2,0.5-0.2c0.2,0,0.4,0,0.5,0.1c0.1,0.1,0.2,0.2,0.3,0.4l1.7,2.8c-1,0.9-2.1,1.6-3.4,2
		C165.2,711.6,163.9,711.8,162.4,711.8z"/>
	<path class="st1" d="M182.9,684.7c1.3-1.3,2.7-2.3,4.2-3.1c1.5-0.8,3.3-1.2,5.4-1.2c1.7,0,3.2,0.3,4.4,0.8s2.3,1.3,3.2,2.4
		c0.9,1,1.5,2.2,1.9,3.6s0.7,3,0.7,4.7v19.4h-5.9v-19.4c0-2.2-0.5-3.9-1.5-5.1c-1-1.2-2.5-1.8-4.6-1.8c-1.5,0-2.9,0.4-4.2,1.1
		c-1.3,0.7-2.5,1.7-3.6,2.9v22.4H177V667h5.9V684.7z"/>
	<path class="st1" d="M226,680.4c2.2,0,4.3,0.4,6.1,1.1c1.8,0.7,3.4,1.8,4.6,3.2s2.2,3,2.9,4.9c0.7,1.9,1,4.1,1,6.5
		c0,2.4-0.3,4.6-1,6.5c-0.7,1.9-1.7,3.6-2.9,5s-2.8,2.4-4.6,3.1c-1.8,0.7-3.8,1.1-6.1,1.1c-2.3,0-4.3-0.4-6.1-1.1
		c-1.8-0.7-3.4-1.8-4.6-3.1s-2.3-3-3-5c-0.7-1.9-1-4.1-1-6.5c0-2.4,0.3-4.6,1-6.5c0.7-1.9,1.7-3.6,3-4.9s2.8-2.4,4.6-3.2
		C221.7,680.7,223.7,680.4,226,680.4z M226,707.2c2.9,0,5-1,6.4-2.9c1.4-1.9,2.1-4.7,2.1-8.2c0-3.5-0.7-6.3-2.1-8.2
		s-3.6-2.9-6.4-2.9c-2.9,0-5.1,1-6.5,2.9c-1.4,2-2.1,4.7-2.1,8.2c0,3.5,0.7,6.3,2.1,8.2C220.9,706.2,223.1,707.2,226,707.2z"/>
	<path class="st1" d="M255.5,667v44.3h-5.9V667H255.5z"/>
	<path class="st1" d="M273.5,671.4c0,0.5-0.1,1.1-0.3,1.5c-0.2,0.5-0.5,0.9-0.9,1.3c-0.4,0.4-0.8,0.7-1.3,0.9s-1,0.3-1.6,0.3
		c-0.5,0-1-0.1-1.5-0.3s-0.9-0.5-1.3-0.9c-0.4-0.4-0.7-0.8-0.9-1.3c-0.2-0.5-0.3-1-0.3-1.5c0-0.6,0.1-1.1,0.3-1.6
		c0.2-0.5,0.5-0.9,0.9-1.3c0.4-0.4,0.8-0.7,1.3-0.9c0.5-0.2,1-0.3,1.5-0.3c0.5,0,1.1,0.1,1.6,0.3c0.5,0.2,0.9,0.5,1.3,0.9
		c0.4,0.4,0.7,0.8,0.9,1.3C273.4,670.3,273.5,670.9,273.5,671.4z M272.4,680.8v30.5h-5.9v-30.5H272.4z"/>
	<path class="st1" d="M304.6,686.5c-0.2,0.2-0.4,0.4-0.5,0.5s-0.4,0.2-0.7,0.2c-0.3,0-0.7-0.1-1-0.4c-0.4-0.2-0.8-0.5-1.3-0.8
		s-1.2-0.6-1.9-0.8c-0.8-0.2-1.7-0.4-2.8-0.4c-1.4,0-2.7,0.3-3.8,0.8c-1.1,0.5-2,1.3-2.7,2.2s-1.3,2.1-1.7,3.5
		c-0.4,1.4-0.6,2.9-0.6,4.7c0,1.8,0.2,3.4,0.6,4.8c0.4,1.4,1,2.6,1.7,3.5c0.7,1,1.6,1.7,2.7,2.2c1.1,0.5,2.2,0.7,3.5,0.7
		c1.3,0,2.3-0.2,3.1-0.5c0.8-0.3,1.5-0.6,2-1s1-0.7,1.4-1c0.4-0.3,0.7-0.5,1.1-0.5c0.5,0,0.9,0.2,1.1,0.5l1.7,2.2
		c-0.7,0.9-1.5,1.6-2.4,2.2c-0.9,0.6-1.8,1.1-2.8,1.5c-1,0.4-2,0.7-3.1,0.8c-1.1,0.2-2.2,0.3-3.3,0.3c-1.9,0-3.7-0.3-5.3-1
		c-1.7-0.7-3.1-1.7-4.3-3.1c-1.2-1.3-2.2-3-2.9-4.9c-0.7-2-1-4.2-1-6.6c0-2.3,0.3-4.4,0.9-6.3s1.6-3.6,2.8-5
		c1.2-1.4,2.7-2.5,4.5-3.3c1.8-0.8,3.9-1.2,6.2-1.2c2.2,0,4.1,0.3,5.8,1s3.1,1.7,4.4,3L304.6,686.5z"/>
	<path class="st1" d="M363.2,702.1c0.4,0,0.7,0.1,0.9,0.4l2.5,2.8c-1.8,2.1-3.9,3.7-6.4,4.8c-2.5,1.1-5.6,1.7-9.1,1.7
		c-3.1,0-5.9-0.5-8.5-1.6c-2.5-1.1-4.7-2.6-6.5-4.5c-1.8-1.9-3.2-4.3-4.2-7s-1.5-5.7-1.5-8.9s0.5-6.2,1.5-8.9c1-2.7,2.5-5,4.3-7
		c1.9-1.9,4.1-3.5,6.7-4.5c2.6-1.1,5.5-1.6,8.6-1.6c3.1,0,5.8,0.5,8.2,1.5c2.4,1,4.5,2.3,6.2,4l-2.1,3c-0.1,0.2-0.3,0.4-0.5,0.5
		c-0.2,0.1-0.5,0.2-0.8,0.2c-0.4,0-0.8-0.2-1.3-0.6c-0.5-0.4-1.2-0.8-2-1.3c-0.8-0.5-1.9-0.9-3.1-1.3c-1.2-0.4-2.7-0.6-4.6-0.6
		c-2.1,0-4.1,0.4-5.9,1.1c-1.8,0.8-3.3,1.8-4.6,3.2c-1.3,1.4-2.3,3.1-3,5.2c-0.7,2.1-1.1,4.4-1.1,6.9c0,2.6,0.4,5,1.1,7
		c0.7,2,1.8,3.8,3.1,5.2c1.3,1.4,2.8,2.5,4.6,3.2c1.8,0.7,3.7,1.1,5.7,1.1c1.2,0,2.4-0.1,3.3-0.2c1-0.1,1.9-0.4,2.7-0.7
		c0.8-0.3,1.6-0.7,2.4-1.2c0.7-0.5,1.5-1,2.2-1.7c0.2-0.1,0.3-0.3,0.5-0.3C362.8,702.1,363,702.1,363.2,702.1z"/>
	<path class="st1" d="M380.2,684.7c1.3-1.3,2.7-2.3,4.2-3.1c1.5-0.8,3.3-1.2,5.4-1.2c1.7,0,3.2,0.3,4.4,0.8c1.3,0.6,2.3,1.3,3.2,2.4
		c0.9,1,1.5,2.2,2,3.6c0.4,1.4,0.7,3,0.7,4.7v19.4h-5.9v-19.4c0-2.2-0.5-3.9-1.5-5.1s-2.5-1.8-4.6-1.8c-1.5,0-2.9,0.4-4.2,1.1
		c-1.3,0.7-2.5,1.7-3.6,2.9v22.4h-5.9V667h5.9V684.7z"/>
	<path class="st1" d="M435.7,680.8v30.5h-3.5c-0.8,0-1.3-0.4-1.6-1.2l-0.4-3.1c-0.7,0.7-1.3,1.3-2.1,1.9c-0.7,0.6-1.5,1.1-2.3,1.5
		c-0.8,0.4-1.7,0.7-2.6,1c-0.9,0.2-1.9,0.3-3,0.3c-1.7,0-3.2-0.3-4.4-0.8c-1.3-0.6-2.3-1.3-3.2-2.4c-0.9-1-1.5-2.2-1.9-3.6
		c-0.4-1.4-0.7-3-0.7-4.7v-19.4h5.9v19.4c0,2.2,0.5,3.9,1.5,5.1c1,1.2,2.5,1.8,4.6,1.8c1.5,0,2.9-0.4,4.2-1.1
		c1.3-0.7,2.5-1.7,3.7-2.9v-22.3H435.7z"/>
	<path class="st1" d="M451.8,686.7c1-2,2.2-3.6,3.5-4.7c1.4-1.1,3-1.7,5-1.7c0.7,0,1.3,0.1,1.9,0.2c0.6,0.2,1.1,0.4,1.5,0.7
		l-0.4,4.4c-0.1,0.5-0.5,0.8-1,0.8c-0.3,0-0.7-0.1-1.3-0.2c-0.6-0.1-1.2-0.2-1.8-0.2c-0.9,0-1.8,0.1-2.5,0.4
		c-0.7,0.3-1.4,0.7-1.9,1.2c-0.6,0.5-1.1,1.2-1.5,2c-0.4,0.8-0.9,1.6-1.2,2.6v19.1h-5.8v-30.5h3.4c0.6,0,1.1,0.1,1.3,0.3
		c0.2,0.2,0.4,0.6,0.5,1.2L451.8,686.7z"/>
	<path class="st1" d="M490.9,686.5c-0.2,0.2-0.4,0.4-0.5,0.5c-0.2,0.1-0.4,0.2-0.7,0.2c-0.3,0-0.7-0.1-1-0.4
		c-0.4-0.2-0.8-0.5-1.3-0.8s-1.2-0.6-1.9-0.8c-0.8-0.2-1.7-0.4-2.8-0.4c-1.4,0-2.7,0.3-3.8,0.8c-1.1,0.5-2,1.3-2.7,2.2
		s-1.3,2.1-1.7,3.5s-0.6,2.9-0.6,4.7c0,1.8,0.2,3.4,0.6,4.8c0.4,1.4,1,2.6,1.7,3.5c0.7,1,1.6,1.7,2.7,2.2c1.1,0.5,2.2,0.7,3.5,0.7
		c1.3,0,2.3-0.2,3.1-0.5c0.8-0.3,1.5-0.6,2-1s1-0.7,1.3-1c0.4-0.3,0.7-0.5,1.1-0.5c0.5,0,0.8,0.2,1.1,0.5l1.7,2.2
		c-0.7,0.9-1.5,1.6-2.4,2.2c-0.9,0.6-1.8,1.1-2.8,1.5c-1,0.4-2,0.7-3.1,0.8c-1.1,0.2-2.2,0.3-3.3,0.3c-1.9,0-3.7-0.3-5.3-1
		c-1.7-0.7-3.1-1.7-4.3-3.1c-1.2-1.3-2.2-3-2.9-4.9s-1-4.2-1-6.6c0-2.3,0.3-4.4,0.9-6.3c0.6-1.9,1.6-3.6,2.8-5
		c1.2-1.4,2.7-2.5,4.5-3.3c1.8-0.8,3.9-1.2,6.2-1.2c2.2,0,4.1,0.3,5.8,1s3.1,1.7,4.4,3L490.9,686.5z"/>
	<path class="st1" d="M506.5,684.7c1.3-1.3,2.7-2.3,4.2-3.1c1.5-0.8,3.3-1.2,5.4-1.2c1.7,0,3.2,0.3,4.4,0.8c1.3,0.6,2.3,1.3,3.2,2.4
		c0.9,1,1.5,2.2,2,3.6c0.4,1.4,0.7,3,0.7,4.7v19.4h-5.9v-19.4c0-2.2-0.5-3.9-1.5-5.1s-2.5-1.8-4.6-1.8c-1.5,0-2.9,0.4-4.2,1.1
		c-1.3,0.7-2.5,1.7-3.6,2.9v22.4h-5.8V667h5.8V684.7z"/>
	<path class="st1" d="M561.3,671.4c0,0.5-0.1,1.1-0.3,1.5c-0.2,0.5-0.5,0.9-0.9,1.3s-0.8,0.7-1.3,0.9c-0.5,0.2-1,0.3-1.6,0.3
		s-1-0.1-1.5-0.3c-0.5-0.2-0.9-0.5-1.3-0.9s-0.7-0.8-0.9-1.3c-0.2-0.5-0.3-1-0.3-1.5c0-0.6,0.1-1.1,0.3-1.6c0.2-0.5,0.5-0.9,0.9-1.3
		c0.4-0.4,0.8-0.7,1.3-0.9c0.5-0.2,1-0.3,1.5-0.3s1.1,0.1,1.6,0.3c0.5,0.2,0.9,0.5,1.3,0.9c0.4,0.4,0.7,0.8,0.9,1.3
		C561.2,670.3,561.3,670.9,561.3,671.4z M560.2,680.8v30.5h-5.9v-30.5H560.2z"/>
	<path class="st1" d="M576.6,685.1c0.7-0.7,1.4-1.3,2.1-1.9s1.5-1.1,2.3-1.5c0.8-0.4,1.7-0.7,2.6-1c0.9-0.2,1.9-0.3,3-0.3
		c1.7,0,3.2,0.3,4.4,0.8c1.3,0.6,2.3,1.3,3.2,2.4c0.9,1,1.5,2.2,2,3.6c0.4,1.4,0.7,3,0.7,4.7v19.4h-5.9v-19.4c0-2.2-0.5-3.9-1.5-5.1
		s-2.5-1.8-4.6-1.8c-1.5,0-2.9,0.4-4.2,1.1c-1.3,0.7-2.5,1.7-3.6,2.9v22.4h-5.8v-30.5h3.5c0.8,0,1.3,0.4,1.5,1.2L576.6,685.1z"/>
	<path class="st1" d="M655.9,702.1c0.4,0,0.7,0.1,0.9,0.4l2.5,2.8c-1.8,2.1-3.9,3.7-6.4,4.8c-2.5,1.1-5.6,1.7-9.1,1.7
		c-3.1,0-5.9-0.5-8.5-1.6s-4.7-2.6-6.5-4.5c-1.8-1.9-3.2-4.3-4.2-7c-1-2.7-1.5-5.7-1.5-8.9s0.5-6.2,1.5-8.9c1-2.7,2.5-5,4.3-7
		c1.9-1.9,4.1-3.5,6.7-4.5s5.5-1.6,8.6-1.6c3.1,0,5.8,0.5,8.2,1.5c2.4,1,4.5,2.3,6.2,4l-2.1,3c-0.1,0.2-0.3,0.4-0.5,0.5
		c-0.2,0.1-0.5,0.2-0.8,0.2c-0.4,0-0.8-0.2-1.3-0.6c-0.5-0.4-1.2-0.8-2-1.3c-0.8-0.5-1.9-0.9-3.1-1.3c-1.2-0.4-2.7-0.6-4.6-0.6
		c-2.1,0-4.1,0.4-5.9,1.1c-1.8,0.8-3.3,1.8-4.6,3.2c-1.3,1.4-2.3,3.1-3,5.2c-0.7,2.1-1.1,4.4-1.1,6.9c0,2.6,0.4,5,1.1,7
		s1.8,3.8,3.1,5.2c1.3,1.4,2.8,2.5,4.6,3.2c1.8,0.7,3.7,1.1,5.7,1.1c1.2,0,2.4-0.1,3.3-0.2c1-0.1,1.9-0.4,2.7-0.7
		c0.8-0.3,1.6-0.7,2.4-1.2c0.7-0.5,1.5-1,2.2-1.7c0.2-0.1,0.3-0.3,0.5-0.3C655.5,702.1,655.7,702.1,655.9,702.1z"/>
	<path class="st1" d="M679.4,680.4c2.2,0,4.3,0.4,6.1,1.1c1.8,0.7,3.3,1.8,4.6,3.2c1.3,1.4,2.2,3,2.9,4.9c0.7,1.9,1,4.1,1,6.5
		c0,2.4-0.3,4.6-1,6.5s-1.7,3.6-2.9,5c-1.3,1.4-2.8,2.4-4.6,3.1c-1.8,0.7-3.8,1.1-6.1,1.1c-2.3,0-4.3-0.4-6.1-1.1
		c-1.8-0.7-3.4-1.8-4.6-3.1c-1.3-1.4-2.3-3-3-5c-0.7-1.9-1-4.1-1-6.5c0-2.4,0.3-4.6,1-6.5c0.7-1.9,1.7-3.6,3-4.9
		c1.3-1.4,2.8-2.4,4.6-3.2C675.1,680.7,677.2,680.4,679.4,680.4z M679.4,707.2c2.9,0,5-1,6.5-2.9c1.4-1.9,2.1-4.7,2.1-8.2
		c0-3.5-0.7-6.3-2.1-8.2s-3.6-2.9-6.5-2.9c-2.9,0-5.1,1-6.5,2.9c-1.4,2-2.1,4.7-2.1,8.2c0,3.5,0.7,6.3,2.1,8.2
		C674.3,706.2,676.5,707.2,679.4,707.2z"/>
	<path class="st1" d="M716,680.4c2.2,0,4.3,0.4,6.1,1.1c1.8,0.7,3.3,1.8,4.6,3.2c1.3,1.4,2.2,3,2.9,4.9c0.7,1.9,1,4.1,1,6.5
		c0,2.4-0.3,4.6-1,6.5s-1.7,3.6-2.9,5c-1.3,1.4-2.8,2.4-4.6,3.1c-1.8,0.7-3.8,1.1-6.1,1.1c-2.3,0-4.3-0.4-6.1-1.1
		c-1.8-0.7-3.4-1.8-4.6-3.1c-1.3-1.4-2.3-3-3-5c-0.7-1.9-1-4.1-1-6.5c0-2.4,0.3-4.6,1-6.5c0.7-1.9,1.7-3.6,3-4.9
		c1.3-1.4,2.8-2.4,4.6-3.2C711.7,680.7,713.7,680.4,716,680.4z M716,707.2c2.9,0,5-1,6.5-2.9c1.4-1.9,2.1-4.7,2.1-8.2
		c0-3.5-0.7-6.3-2.1-8.2s-3.6-2.9-6.5-2.9c-2.9,0-5.1,1-6.5,2.9c-1.4,2-2.1,4.7-2.1,8.2c0,3.5,0.7,6.3,2.1,8.2
		C710.9,706.2,713,707.2,716,707.2z"/>
	<path class="st1" d="M745.4,667v25.9h1.4c0.4,0,0.8-0.1,1-0.2s0.6-0.4,0.9-0.7l9.1-10c0.3-0.4,0.6-0.7,0.9-0.9
		c0.3-0.2,0.8-0.3,1.3-0.3h5.3l-10.8,11.8c-0.6,0.7-1.2,1.3-1.9,1.7c0.4,0.3,0.7,0.6,1,0.9c0.3,0.3,0.6,0.7,0.9,1.1l11.5,15h-5.2
		c-0.5,0-0.9-0.1-1.2-0.2c-0.3-0.2-0.7-0.5-0.9-0.9l-9.4-12.2c-0.3-0.5-0.6-0.8-0.9-0.9c-0.3-0.1-0.8-0.2-1.4-0.2h-1.6v14.4h-5.8
		V667H745.4z"/>
	<path class="st1" d="M796.1,707c-0.7,0.8-1.5,1.6-2.5,2.2s-1.9,1.1-3,1.5c-1.1,0.4-2.2,0.7-3.3,0.8c-1.1,0.2-2.2,0.3-3.3,0.3
		c-2.1,0-4-0.4-5.8-1.1c-1.8-0.7-3.3-1.8-4.6-3.1c-1.3-1.4-2.3-3.1-3.1-5.1c-0.7-2-1.1-4.4-1.1-7c0-2.1,0.3-4.1,1-5.9
		c0.7-1.8,1.6-3.4,2.8-4.8c1.2-1.4,2.7-2.4,4.5-3.2s3.8-1.2,6-1.2c1.9,0,3.6,0.3,5.1,0.9c1.6,0.6,2.9,1.5,4.1,2.7
		c1.1,1.2,2,2.6,2.7,4.3c0.6,1.7,1,3.6,1,5.8c0,0.9-0.1,1.5-0.3,1.8c-0.2,0.3-0.6,0.5-1.1,0.5h-20c0.1,1.8,0.3,3.4,0.8,4.8
		c0.5,1.4,1.1,2.5,1.9,3.4c0.8,0.9,1.8,1.6,2.9,2c1.1,0.4,2.4,0.7,3.8,0.7c1.3,0,2.4-0.1,3.4-0.5c1-0.3,1.8-0.6,2.5-1
		c0.7-0.3,1.3-0.7,1.7-1c0.5-0.3,0.9-0.5,1.2-0.5c0.5,0,0.8,0.2,1.1,0.5L796.1,707z M791.3,692.7c0-1.2-0.2-2.2-0.5-3.2
		c-0.3-1-0.8-1.8-1.5-2.6c-0.6-0.7-1.4-1.3-2.3-1.7c-0.9-0.4-2-0.6-3.2-0.6c-2.5,0-4.4,0.7-5.8,2.1c-1.4,1.4-2.3,3.4-2.7,5.9H791.3z
		"/>
	<path class="st1" d="M831,680.8l-12.4,30.5h-5.3L801,680.8h4.8c0.5,0,0.8,0.1,1.1,0.3c0.3,0.2,0.5,0.5,0.6,0.8l7.3,18.7
		c0.3,0.8,0.5,1.6,0.7,2.3c0.2,0.8,0.4,1.5,0.5,2.3c0.2-0.8,0.3-1.5,0.5-2.3c0.2-0.8,0.4-1.5,0.7-2.3l7.4-18.7
		c0.1-0.3,0.3-0.6,0.6-0.8c0.3-0.2,0.7-0.3,1.1-0.3H831z"/>
	<path class="st1" d="M845.4,671.4c0,0.5-0.1,1.1-0.3,1.5c-0.2,0.5-0.5,0.9-0.9,1.3s-0.8,0.7-1.3,0.9c-0.5,0.2-1,0.3-1.6,0.3
		s-1-0.1-1.5-0.3c-0.5-0.2-0.9-0.5-1.3-0.9s-0.7-0.8-0.9-1.3c-0.2-0.5-0.3-1-0.3-1.5c0-0.6,0.1-1.1,0.3-1.6c0.2-0.5,0.5-0.9,0.9-1.3
		c0.4-0.4,0.8-0.7,1.3-0.9c0.5-0.2,1-0.3,1.5-0.3s1.1,0.1,1.6,0.3c0.5,0.2,0.9,0.5,1.3,0.9c0.4,0.4,0.7,0.8,0.9,1.3
		C845.2,670.3,845.4,670.9,845.4,671.4z M844.2,680.8v30.5h-5.9v-30.5H844.2z"/>
	<path class="st1" d="M861.1,667v44.3h-5.9V667H861.1z"/>
	<path class="st1" d="M877.9,667v44.3H872V667H877.9z"/>
	<path class="st1" d="M913.6,707c-0.7,0.8-1.5,1.6-2.5,2.2s-1.9,1.1-3,1.5c-1.1,0.4-2.2,0.7-3.3,0.8c-1.1,0.2-2.2,0.3-3.3,0.3
		c-2.1,0-4-0.4-5.8-1.1c-1.8-0.7-3.3-1.8-4.6-3.1c-1.3-1.4-2.3-3.1-3.1-5.1c-0.7-2-1.1-4.4-1.1-7c0-2.1,0.3-4.1,1-5.9
		c0.7-1.8,1.6-3.4,2.8-4.8c1.2-1.4,2.7-2.4,4.5-3.2s3.8-1.2,6-1.2c1.9,0,3.6,0.3,5.1,0.9c1.6,0.6,2.9,1.5,4.1,2.7
		c1.1,1.2,2,2.6,2.7,4.3c0.6,1.7,1,3.6,1,5.8c0,0.9-0.1,1.5-0.3,1.8c-0.2,0.3-0.6,0.5-1.1,0.5h-20c0.1,1.8,0.3,3.4,0.8,4.8
		c0.5,1.4,1.1,2.5,1.9,3.4c0.8,0.9,1.8,1.6,2.9,2c1.1,0.4,2.4,0.7,3.8,0.7c1.3,0,2.4-0.1,3.4-0.5c1-0.3,1.8-0.6,2.5-1
		c0.7-0.3,1.3-0.7,1.7-1c0.5-0.3,0.9-0.5,1.2-0.5c0.5,0,0.8,0.2,1.1,0.5L913.6,707z M908.8,692.7c0-1.2-0.2-2.2-0.5-3.2
		c-0.3-1-0.8-1.8-1.5-2.6c-0.6-0.7-1.4-1.3-2.3-1.7c-0.9-0.4-2-0.6-3.2-0.6c-2.5,0-4.4,0.7-5.8,2.1c-1.4,1.4-2.3,3.4-2.7,5.9H908.8z
		"/>
	<path class="st1" d="M925.4,711.3c-0.5,0-1-0.1-1.5-0.3c-0.4-0.2-0.8-0.5-1.2-0.8c-0.3-0.3-0.6-0.8-0.8-1.2c-0.2-0.5-0.3-1-0.3-1.6
		c0-0.5,0.1-0.9,0.3-1.4c0.2-0.4,0.4-0.8,0.8-1.1c0.3-0.3,0.7-0.6,1.2-0.8c0.5-0.2,1-0.3,1.5-0.3c0.6,0,1.2,0.1,1.7,0.3
		c0.5,0.2,0.9,0.6,1.2,1c0.3,0.4,0.6,0.9,0.7,1.4s0.2,1.1,0.2,1.7c0,0.9-0.1,1.9-0.4,2.8c-0.3,1-0.6,2-1.1,3c-0.5,1-1.1,1.9-1.9,2.8
		c-0.7,0.9-1.6,1.8-2.5,2.5l-1-0.9c-0.3-0.3-0.4-0.6-0.4-0.9c0-0.1,0-0.3,0.1-0.4c0.1-0.1,0.2-0.3,0.3-0.4c0.2-0.2,0.5-0.5,0.8-0.9
		c0.3-0.4,0.6-0.8,0.9-1.2c0.3-0.5,0.6-1,0.9-1.6c0.3-0.6,0.5-1.2,0.6-1.8H925.4z"/>
	<path class="st1" d="M985.2,673.6h-13.7v37.7h-6.4v-37.7h-13.7v-5.3h33.8V673.6z"/>
	<path class="st1" d="M1029.1,668.2v43.1h-3.2c-0.5,0-0.9-0.1-1.2-0.3c-0.3-0.2-0.7-0.5-1-0.9l-24.3-31.5c0,0.5,0.1,1.1,0.1,1.6
		c0,0.5,0,1,0,1.5v29.5h-5.6v-43.1h3.3c0.6,0,1,0.1,1.3,0.2c0.3,0.1,0.6,0.4,0.9,0.9l24.4,31.5c-0.1-0.6-0.1-1.1-0.1-1.7
		c0-0.5,0-1.1,0-1.5v-29.3H1029.1z"/>
</g>
<rect x="58.5" y="571.9" class="st2" width="996.8" height="5.2"/>
<rect x="58.5" y="723.8" class="st2" width="996.8" height="5.2"/>
</svg>
